<svg width="60" height="60" viewBox="0 0 60 60" fill="none" xmlns="http://www.w3.org/2000/svg">
<path d="M30.0522 2.55469H30.0006C22.722 2.55469 15.7416 5.4461 10.5948 10.5928C5.44805 15.7396 2.55664 22.7201 2.55664 29.9987C2.55664 37.2773 5.44805 44.2578 10.5948 49.4045C15.7416 54.5513 22.722 57.4427 30.0006 57.4427C30.2393 57.4427 30.4683 57.3479 30.637 57.1791C30.8058 57.0103 30.9006 56.7814 30.9006 56.5427C30.9006 56.304 30.8058 56.0751 30.637 55.9063C30.4683 55.7375 30.2393 55.6427 30.0006 55.6427C23.1994 55.6427 16.6768 52.9409 11.8676 48.1317C7.05841 43.3225 4.35664 36.7999 4.35664 29.9987C4.35664 23.1975 7.05841 16.6748 11.8676 11.8656C16.6768 7.05646 23.1994 4.35469 30.0006 4.35469H30.0492C34.7312 4.36391 39.3214 5.65464 43.322 8.08695C47.3227 10.5193 50.5811 14.0003 52.7442 18.1527C54.9072 22.3051 55.8922 26.9705 55.5925 31.6429C55.2928 36.3153 53.7197 40.8165 51.0438 44.6585C50.648 45.2245 50.1327 45.6966 49.5342 46.0413C48.9357 46.3861 48.2688 46.5951 47.5806 46.6535C46.8788 46.7151 46.1721 46.6222 45.51 46.3814C44.848 46.1406 44.2467 45.7577 43.7484 45.2597L42.9006 44.4089C43.227 44.2139 43.548 44.0057 43.8606 43.7813C44.4909 43.3395 45.0814 42.8434 45.6252 42.2987H45.6282C46.0918 41.8283 46.3508 41.1939 46.3489 40.5335C46.347 39.8731 46.0843 39.2402 45.618 38.7725L40.9572 34.1171C40.4889 33.65 39.8544 33.3877 39.1929 33.3877C38.5315 33.3877 37.897 33.65 37.4286 34.1171L36.7326 34.8107C36.5038 35.0378 36.2527 35.2414 35.9832 35.4185C35.0885 35.997 34.0228 36.2522 32.9631 36.1416C31.9034 36.0311 30.9133 35.5614 30.1572 34.8107L24.0666 28.7201C23.4942 28.142 23.1735 27.361 23.1747 26.5474C23.1758 25.7339 23.4986 24.9538 24.0726 24.3773L25.8822 22.5587C26.1145 22.3276 26.2988 22.053 26.4246 21.7504C26.5504 21.4479 26.6152 21.1235 26.6152 20.7959C26.6152 20.4683 26.5504 20.1439 26.4246 19.8413C26.2988 19.5388 26.1145 19.2641 25.8822 19.0331L21.2292 14.3807C20.9989 14.1468 20.7241 13.9613 20.4211 13.8351C20.1181 13.7089 19.7929 13.6445 19.4646 13.6457C18.8386 13.6433 18.2352 13.8793 17.7768 14.3057C17.749 14.3275 17.7226 14.3509 17.6976 14.3759C17.1573 14.9169 16.6635 15.5026 16.2216 16.1267C14.4995 18.5275 13.5926 21.4172 13.6341 24.3714C13.6756 27.3257 14.6632 30.1888 16.452 32.5403C19.5932 36.7036 23.3004 40.4078 27.4662 43.5455C29.8754 45.3714 32.8145 46.3615 35.8374 46.3655C37.6835 46.3634 39.5101 45.9889 41.208 45.2645L42.4752 46.5335C43.1583 47.219 43.9839 47.7459 44.8934 48.0766C45.8028 48.4074 46.7739 48.534 47.7378 48.4475C48.6885 48.3661 49.6096 48.0767 50.436 47.5997C51.2624 47.1228 51.9738 46.4699 52.5198 45.6875C55.384 41.576 57.0679 36.7588 57.3889 31.7583C57.71 26.7578 56.6559 21.7648 54.3411 17.3208C52.0262 12.8768 48.5389 9.15128 44.2572 6.5483C39.9756 3.94532 35.063 2.5642 30.0522 2.55469ZM28.5522 42.1079C24.5199 39.0727 20.9315 35.4891 17.8908 31.4609C16.4463 29.5606 15.6003 27.2732 15.4608 24.8903C15.3212 22.5073 15.8944 20.1368 17.1072 18.0809L20.439 21.4133C20.6079 21.5821 20.8369 21.677 21.0756 21.677C21.3144 21.677 21.5434 21.5821 21.7122 21.4133C21.8811 21.2445 21.9759 21.0155 21.9759 20.7767C21.9759 20.5379 21.8811 20.3089 21.7122 20.1401L18.1512 16.5767C18.3912 16.2767 18.6432 15.9869 18.9138 15.7121C18.9379 15.6933 18.9609 15.6733 18.9828 15.6521C19.1138 15.5261 19.2887 15.456 19.4705 15.4566C19.6522 15.4573 19.8266 15.5287 19.9566 15.6557L24.6126 20.3117C24.6776 20.3762 24.729 20.453 24.764 20.5375C24.7991 20.6221 24.8169 20.7128 24.8166 20.8043C24.8165 20.8945 24.7984 20.9838 24.7634 21.0669C24.7284 21.1501 24.6771 21.2254 24.6126 21.2885L22.7916 23.1149C21.8839 24.0297 21.3745 25.2662 21.3745 26.555C21.3745 27.8437 21.8839 29.0803 22.7916 29.9951L28.8846 36.0833C29.8436 37.034 31.0757 37.6613 32.4086 37.8777C33.7416 38.094 35.1088 37.8885 36.3192 37.2899L39.9792 40.9499C40.149 41.1138 40.3763 41.2045 40.6123 41.2025C40.8483 41.2004 41.074 41.1058 41.2409 40.9389C41.4077 40.7721 41.5024 40.5463 41.5044 40.3103C41.5065 40.0744 41.4158 39.847 41.2518 39.6773L37.8246 36.2501C37.8846 36.1949 37.95 36.1427 38.0046 36.0857L38.7006 35.3867C38.8312 35.2564 39.0082 35.1832 39.1926 35.1832C39.3771 35.1832 39.554 35.2564 39.6846 35.3867L44.3454 40.0421C44.4757 40.1726 44.5493 40.3493 44.5502 40.5337C44.5511 40.7181 44.4792 40.8955 44.3502 41.0273C43.8788 41.499 43.3668 41.9285 42.8202 42.3107C40.733 43.8083 38.2203 44.5968 35.6516 44.5603C33.0829 44.5238 30.5937 43.6642 28.5498 42.1079H28.5522Z" fill="black"/>
</svg>
